<svg width="25" height="25" viewBox="0 0 25 25" fill="none" xmlns="http://www.w3.org/2000/svg">
<path fill-rule="evenodd" clip-rule="evenodd" d="M3.66058 1.32062C3.34482 1.01565 2.9219 0.846896 2.48293 0.85071C2.04395 0.854525 1.62403 1.0306 1.31362 1.34102C1.0032 1.65143 0.827129 2.07135 0.823314 2.51032C0.8195 2.9493 0.988252 3.37221 1.29323 3.68797L10.1549 12.5496L1.29323 21.4113C1.13332 21.5657 1.00577 21.7505 0.918029 21.9547C0.830285 22.159 0.784099 22.3787 0.782168 22.601C0.780236 22.8233 0.822597 23.0438 0.906778 23.2495C0.99096 23.4553 1.11528 23.6422 1.27247 23.7994C1.42967 23.9566 1.6166 24.0809 1.82236 24.1651C2.02811 24.2493 2.24857 24.2916 2.47088 24.2897C2.69318 24.2878 2.91287 24.2416 3.11713 24.1539C3.32139 24.0661 3.50614 23.9386 3.66058 23.7787L12.5222 14.917L21.3839 23.7787C21.6997 24.0836 22.1226 24.2524 22.5616 24.2486C23.0005 24.2448 23.4205 24.0687 23.7309 23.7583C24.0413 23.4478 24.2174 23.0279 24.2212 22.589C24.225 22.15 24.0562 21.7271 23.7513 21.4113L14.8896 12.5496L23.7513 3.68797C24.0562 3.37221 24.225 2.9493 24.2212 2.51032C24.2174 2.07135 24.0413 1.65143 23.7309 1.34102C23.4205 1.0306 23.0005 0.854525 22.5616 0.85071C22.1226 0.846896 21.6997 1.01565 21.3839 1.32062L12.5222 10.1823L3.66058 1.32062Z" fill="#F8B657"/>
</svg>
