<svg width="24" height="24" viewBox="0 0 24 24" fill="none" xmlns="http://www.w3.org/2000/svg">
<path fill-rule="evenodd" clip-rule="evenodd" d="M15.2627 0.830539C12.9579 0.204721 10.5169 0.297992 8.26664 1.09786C6.01633 1.89774 4.0641 3.36603 2.67132 5.30614V2.9841C2.67132 2.69269 2.55556 2.41322 2.34951 2.20716C2.14346 2.00111 1.864 1.88535 1.5726 1.88535C1.2812 1.88535 1.00174 2.00111 0.795685 2.20716C0.589635 2.41322 0.473877 2.69269 0.473877 2.9841L0.473877 9.21039H6.69997C6.99137 9.21039 7.27083 9.09463 7.47688 8.88858C7.68293 8.68252 7.79869 8.40305 7.79869 8.11164C7.79869 7.82023 7.68293 7.54076 7.47688 7.3347C7.27083 7.12864 6.99137 7.01288 6.69997 7.01288H4.16998C5.31753 5.21749 7.03407 3.85888 9.04499 3.15438C11.0559 2.44989 13.245 2.44022 15.2621 3.12693C17.2791 3.81365 19.0076 5.15705 20.1709 6.94223C21.3343 8.72742 21.8653 10.8512 21.6791 12.9739C21.4928 15.0965 20.6 17.0954 19.1435 18.6507C17.687 20.2059 15.751 21.2277 13.6452 21.5526C11.5393 21.8775 9.38539 21.4867 7.5279 20.4428C5.67042 19.3988 4.21673 17.762 3.39941 15.7941C3.28336 15.5315 3.06913 15.3248 2.80258 15.2181C2.53602 15.1115 2.23831 15.1134 1.97316 15.2235C1.70801 15.3336 1.49647 15.5431 1.38383 15.8072C1.27118 16.0713 1.26637 16.3689 1.37043 16.6365C2.13396 18.4744 3.35292 20.0876 4.91242 21.324C6.47191 22.5605 8.32056 23.3794 10.2841 23.7036C12.2477 24.0278 14.2614 23.8466 16.1356 23.1772C18.0098 22.5077 19.6826 21.372 20.9964 19.8771C22.3102 18.3822 23.2216 16.5773 23.6449 14.6326C24.0681 12.688 23.9892 10.6675 23.4156 8.7618C22.8419 6.85606 21.7924 5.12781 20.3661 3.73994C18.9397 2.35207 17.1833 1.35177 15.2627 0.830539Z" fill="#F8B657"/>
</svg>
