<svg width="16" height="25" viewBox="0 0 16 25" fill="none" xmlns="http://www.w3.org/2000/svg">
<path d="M4.03437 0.850647C4.37479 0.850647 4.70127 0.98784 4.94199 1.23204C5.18271 1.47625 5.31794 1.80746 5.31794 2.15282V22.9876C5.31794 23.333 5.18271 23.6642 4.94199 23.9084C4.70127 24.1526 4.37479 24.2898 4.03437 24.2898H1.46723C1.1268 24.2898 0.800321 24.1526 0.559604 23.9084C0.318888 23.6642 0.183655 23.333 0.183655 22.9876V2.15282C0.183655 1.80746 0.318888 1.47625 0.559604 1.23204C0.800321 0.98784 1.1268 0.850647 1.46723 0.850647H4.03437ZM14.3029 0.850647C14.6434 0.850647 14.9698 0.98784 15.2106 1.23204C15.4513 1.47625 15.5865 1.80746 15.5865 2.15282V22.9876C15.5865 23.333 15.4513 23.6642 15.2106 23.9084C14.9698 24.1526 14.6434 24.2898 14.3029 24.2898H11.7358C11.3954 24.2898 11.0689 24.1526 10.8282 23.9084C10.5875 23.6642 10.4522 23.333 10.4522 22.9876V2.15282C10.4522 1.80746 10.5875 1.47625 10.8282 1.23204C11.0689 0.98784 11.3954 0.850647 11.7358 0.850647H14.3029Z" fill="#F8B657"/>
</svg>
